<!--?xml version="1.0" standalone="no"?-->
              <svg id="sw-js-blob-svg" viewBox="0 0 100 100" xmlns="http://www.w3.org/2000/svg" version="1.1">
                    <defs> 
                        <linearGradient id="sw-gradient" x1="0" x2="1" y1="1" y2="0">
                            <stop id="stop1" stop-color="rgba(248, 117, 55, 1)" offset="0%"></stop>
                            <stop id="stop2" stop-color="rgba(251, 168, 31, 1)" offset="100%"></stop>
                        </linearGradient>
                    </defs>
                <path fill="url(#sw-gradient)" d="M22.3,-25.3C29.1,-21,34.7,-14.1,37.9,-5.3C41.1,3.5,41.9,14,37.6,22C33.4,30,24.1,35.4,15,36.9C5.9,38.3,-3.1,35.9,-12.4,33C-21.6,30,-31,26.7,-35.6,20C-40.1,13.3,-39.6,3.2,-36.4,-4.9C-33.2,-13,-27.2,-19.2,-20.7,-23.6C-14.2,-27.9,-7.1,-30.6,0.4,-31C7.8,-31.4,15.6,-29.7,22.3,-25.3Z" width="100%" height="100%" transform="translate(50 50)" stroke-width="0" style="transition: all 0.3s ease 0s;"></path>
              </svg>